<svg width="16" height="17" viewBox="0 0 16 17" fill="none" xmlns="http://www.w3.org/2000/svg">
<path fill-rule="evenodd" clip-rule="evenodd" d="M8 1C3.58 1 0 4.58 0 9C0 12.54 2.29 15.53 5.47 16.59C5.87 16.66 6.02 16.42 6.02 16.21C6.02 16.02 6.01 15.39 6.01 14.72C4 15.09 3.48 14.23 3.32 13.78C3.23 13.55 2.84 12.84 2.5 12.65C2.22 12.5 1.82 12.13 2.49 12.12C3.12 12.11 3.57 12.7 3.72 12.94C4.44 14.15 5.59 13.81 6.05 13.6C6.12 13.08 6.33 12.73 6.56 12.53C4.78 12.33 2.92 11.64 2.92 8.58C2.92 7.71 3.23 6.99 3.74 6.43C3.66 6.23 3.38 5.41 3.82 4.31C3.82 4.31 4.49 4.1 6.02 5.13C6.66 4.95 7.34 4.86 8.02 4.86C8.7 4.86 9.38 4.95 10.02 5.13C11.55 4.09 12.22 4.31 12.22 4.31C12.66 5.41 12.38 6.23 12.3 6.43C12.81 6.99 13.12 7.7 13.12 8.58C13.12 11.65 11.25 12.33 9.47 12.53C9.76 12.78 10.01 13.26 10.01 14.01C10.01 15.08 10 15.94 10 16.21C10 16.42 10.15 16.67 10.55 16.59C12.1381 16.0538 13.5181 15.0331 14.4958 13.6716C15.4734 12.31 15.9995 10.6762 16 9C16 4.58 12.42 1 8 1Z" fill="white"/>
</svg>
