<svg width="16" height="16" viewBox="0 0 16 16" fill="none" xmlns="http://www.w3.org/2000/svg">
<g clip-path="url(#clip0)">
<path d="M15.762 5.29122C15.2053 5.53789 14.6073 5.70456 13.9786 5.77989C14.6273 5.39175 15.1126 4.78087 15.344 4.06122C14.7345 4.42321 14.0675 4.67802 13.372 4.81456C12.9042 4.31513 12.2847 3.98411 11.6095 3.87287C10.9344 3.76164 10.2414 3.87642 9.63813 4.19939C9.03489 4.52236 8.55515 5.03546 8.2734 5.65902C7.99166 6.28259 7.92366 6.98172 8.07997 7.64789C6.84509 7.58589 5.63705 7.26492 4.53425 6.70582C3.43145 6.14673 2.45853 5.362 1.67863 4.40256C1.41197 4.86256 1.25863 5.39589 1.25863 5.96389C1.25834 6.47522 1.38426 6.97872 1.62522 7.42971C1.86618 7.8807 2.21474 8.26525 2.63997 8.54922C2.14682 8.53353 1.66455 8.40028 1.2333 8.16055V8.20055C1.23325 8.91772 1.48132 9.61281 1.93542 10.1679C2.38952 10.723 3.02168 11.1038 3.72463 11.2459C3.26716 11.3697 2.78753 11.3879 2.32197 11.2992C2.5203 11.9163 2.90663 12.4559 3.42688 12.8425C3.94713 13.2291 4.57525 13.4433 5.2233 13.4552C4.12319 14.3188 2.76456 14.7873 1.36597 14.7852C1.11822 14.7853 0.870685 14.7708 0.624634 14.7419C2.04428 15.6547 3.69686 16.1391 5.38463 16.1372C11.098 16.1372 14.2213 11.4052 14.2213 7.30122C14.2213 7.16789 14.218 7.03322 14.212 6.89989C14.8195 6.46054 15.3439 5.91649 15.7606 5.29322L15.762 5.29122V5.29122Z" fill="white"/>
</g>
<defs>
<clipPath id="clip0">
<rect width="16" height="16" fill="white"/>
</clipPath>
</defs>
</svg>
